 <svg
    id="visual"
    viewBox="0 0 900 200"
    width="900"
    height="200"
    xmlns="http://www.w3.org/2000/svg"
    xmlns:xlink="http://www.w3.org/1999/xlink"
    version="1.1">
    <path
      d="M0 91L150 139L300 117L450 148L600 135L750 143L900 132L900 201L750 201L600 201L450 201L300 201L150 201L0 201Z"
      fill="#098acd"></path>
    <path
      d="M0 124L150 114L300 146L450 107L600 111L750 132L900 144L900 201L750 201L600 201L450 201L300 201L150 201L0 201Z"
      fill="#0b96da"></path>
    <path
      d="M0 148L150 140L300 145L450 151L600 135L750 174L900 152L900 201L750 201L600 201L450 201L300 201L150 201L0 201Z"
      fill="#0da2e6"></path>
    <path
      d="M0 183L150 154L300 174L450 141L600 152L750 170L900 178L900 201L750 201L600 201L450 201L300 201L150 201L0 201Z"
      fill="#0faef3"></path>
    <path
      d="M0 170L150 166L300 179L450 172L600 179L750 170L900 159L900 201L750 201L600 201L450 201L300 201L150 201L0 201Z"
      fill="#12baff"></path>
</svg>