<svg id="visual" viewBox="0 0 900 100" width="900" height="100" xmlns="http://www.w3.org/2000/svg" xmlns:xlink="http://www.w3.org/1999/xlink" version="1.1"><path d="M0 93L50 85L100 71L150 83L200 87L250 97L300 87L350 75L400 78L450 90L500 90L550 70L600 65L650 84L700 64L750 99L800 84L850 69L900 93L900 0L850 0L800 0L750 0L700 0L650 0L600 0L550 0L500 0L450 0L400 0L350 0L300 0L250 0L200 0L150 0L100 0L50 0L0 0Z" fill="#67d3ff"></path><path d="M0 84L50 78L100 79L150 66L200 68L250 75L300 80L350 67L400 71L450 68L500 80L550 67L600 88L650 65L700 61L750 58L800 84L850 59L900 63L900 0L850 0L800 0L750 0L700 0L650 0L600 0L550 0L500 0L450 0L400 0L350 0L300 0L250 0L200 0L150 0L100 0L50 0L0 0Z" fill="#5acdff"></path><path d="M0 59L50 58L100 60L150 49L200 61L250 68L300 77L350 48L400 78L450 59L500 62L550 48L600 64L650 66L700 77L750 53L800 49L850 50L900 47L900 0L850 0L800 0L750 0L700 0L650 0L600 0L550 0L500 0L450 0L400 0L350 0L300 0L250 0L200 0L150 0L100 0L50 0L0 0Z" fill="#4cc7ff"></path><path d="M0 44L50 40L100 45L150 58L200 39L250 55L300 62L350 56L400 46L450 41L500 58L550 61L600 56L650 49L700 55L750 53L800 65L850 53L900 43L900 0L850 0L800 0L750 0L700 0L650 0L600 0L550 0L500 0L450 0L400 0L350 0L300 0L250 0L200 0L150 0L100 0L50 0L0 0Z" fill="#3ec0ff"></path><path d="M0 35L50 52L100 48L150 38L200 59L250 34L300 34L350 50L400 55L450 51L500 40L550 38L600 57L650 39L700 57L750 53L800 49L850 58L900 57L900 0L850 0L800 0L750 0L700 0L650 0L600 0L550 0L500 0L450 0L400 0L350 0L300 0L250 0L200 0L150 0L100 0L50 0L0 0Z" fill="#2fbaff"></path><path d="M0 33L50 47L100 25L150 47L200 29L250 40L300 49L350 28L400 39L450 36L500 41L550 45L600 34L650 43L700 28L750 35L800 42L850 29L900 45L900 0L850 0L800 0L750 0L700 0L650 0L600 0L550 0L500 0L450 0L400 0L350 0L300 0L250 0L200 0L150 0L100 0L50 0L0 0Z" fill="#1fb4ff"></path><path d="M0 19L50 29L100 28L150 30L200 35L250 19L300 33L350 27L400 32L450 25L500 24L550 27L600 32L650 30L700 35L750 34L800 34L850 27L900 20L900 0L850 0L800 0L750 0L700 0L650 0L600 0L550 0L500 0L450 0L400 0L350 0L300 0L250 0L200 0L150 0L100 0L50 0L0 0Z" fill="#0dadff"></path><path d="M0 15L50 20L100 26L150 7L200 12L250 23L300 21L350 8L400 25L450 16L500 21L550 24L600 23L650 14L700 23L750 20L800 16L850 7L900 27L900 0L850 0L800 0L750 0L700 0L650 0L600 0L550 0L500 0L450 0L400 0L350 0L300 0L250 0L200 0L150 0L100 0L50 0L0 0Z" fill="#00a6ff"></path><path d="M0 3L50 13L100 1L150 8L200 6L250 1L300 10L350 3L400 10L450 3L500 4L550 3L600 17L650 14L700 14L750 18L800 7L850 2L900 0L900 0L850 0L800 0L750 0L700 0L650 0L600 0L550 0L500 0L450 0L400 0L350 0L300 0L250 0L200 0L150 0L100 0L50 0L0 0Z" fill="#009fff"></path></svg>